Coordinates
version=1
nRows=13
nColumns=38
inDegrees=yes

Units are S.I. units (second, meters, Newtons, ...)
Angles are in degrees.

endheader
time	pelvis_tilt	pelvis_list	pelvis_rotation	pelvis_tx	pelvis_ty	pelvis_tz	hip_flexion_r	hip_adduction_r	hip_rotation_r	knee_angle_r	ankle_angle_r	subtalar_angle_r	mtp_angle_r	hip_flexion_l	hip_adduction_l	hip_rotation_l	knee_angle_l	ankle_angle_l	subtalar_angle_l	mtp_angle_l	lumbar_extension	lumbar_bending	lumbar_rotation	arm_flex_r	arm_add_r	arm_rot_r	elbow_flex_r	pro_sup_r	wrist_flex_r	wrist_dev_r	arm_flex_l	arm_add_l	arm_rot_l	elbow_flex_l	pro_sup_l	wrist_flex_l	wrist_dev_l
      1.76000000	      2.30372550	      0.10007365	     -2.75909889	      0.30042836	      1.10340754	     -0.28590464	     19.01657708	     -1.14858559	     -4.16582340	    -46.19270631	      0.91056826	    -13.61000872	      0.00000000	      2.56274954	      3.10433964	     -3.65642096	    -15.09357666	      8.01775740	     -5.49900043	      0.00000000	    -17.45038927	     -2.63725811	      0.58198731	     -6.37485778	     -8.05035593	     51.05511626	     27.50460214	     41.60963252	      0.00000000	      0.00000000	      9.31367372	    -15.60827857	     32.49909251	     39.05984828	     41.60963252	      0.00000000	      0.00000000
      1.77000000	      2.21435472	      0.28306626	     -2.61377168	      0.31174872	      1.10280308	     -0.28640889	     19.56968847	     -1.09222244	     -3.97595569	    -43.46776184	      1.02469422	    -13.14628089	      0.00000000	      1.73112945	      3.36872199	     -3.63715280	    -14.54829139	      8.38807267	     -5.40669304	      0.00000000	    -17.37307876	     -2.75765491	      0.38075091	     -6.64795541	     -7.94714405	     51.20768502	     27.48589662	     41.62826781	      0.00000000	      0.00000000	      9.74198422	    -15.85282106	     32.31126627	     39.44286295	     41.62826781	      0.00000000	      0.00000000
      1.78000000	      2.22590842	      0.53802753	     -2.45157495	      0.32317892	      1.10214114	     -0.28693994	     20.00901711	     -1.11939931	     -3.76548595	    -40.73202925	      1.04093529	    -12.55000741	      0.00000000	      0.76779710	      3.70014910	     -3.57721349	    -13.96978026	      8.76724389	     -5.26615386	      0.00000000	    -17.41200730	     -2.93604663	      0.19800634	     -6.91222045	     -7.83007019	     51.35416478	     27.47652864	     41.64573861	      0.00000000	      0.00000000	     10.22773475	    -16.06724877	     32.11964850	     39.89767307	     41.64573861	      0.00000000	      0.00000000
      1.79000000	      2.43036297	      0.75138996	     -2.31528803	      0.33459580	      1.10153710	     -0.28721470	     20.14415643	     -1.09369317	     -3.45701456	    -37.84241775	      0.89363876	    -11.80909183	      0.00000000	     -0.48494501	      4.01244474	     -3.70835117	    -13.19367642	      9.13890861	     -5.36193720	      0.00000000	    -17.71679974	     -3.13748634	     -0.12316771	     -6.70465485	     -7.78942936	     53.60105583	     26.93882880	     42.09037063	      0.00000000	      0.00000000	      8.91003544	    -16.58880566	     27.61827316	     45.17325736	     42.09037063	      0.00000000	      0.00000000
      1.80000000	      2.53372201	      0.99187793	     -2.15565110	      0.34599953	      1.10059748	     -0.28760875	     20.33899930	     -1.16439237	     -3.39181145	    -34.86617659	      0.75656620	    -10.79890380	      0.00000000	     -1.59419020	      4.33898964	     -3.77194202	    -12.51959112	      9.53032286	     -5.28905740	      0.00000000	    -17.88916109	     -3.31142512	     -0.27828665	     -6.86974495	     -7.68839218	     53.73577842	     26.90399167	     42.12155253	      0.00000000	      0.00000000	      9.41586542	    -16.65224875	     27.26362399	     45.37941985	     42.12155253	      0.00000000	      0.00000000
      1.81000000	      2.64473908	      1.26224889	     -2.02400004	      0.35744248	      1.09937998	     -0.28796112	     20.42320469	     -1.26055836	     -3.17471705	    -31.80061805	      0.46168127	     -9.74776752	      0.00000000	     -2.72667048	      4.70261865	     -3.84525730	    -11.83051270	      9.95015543	     -5.26667279	      0.00000000	    -18.05157005	     -3.52753631	     -0.40421504	     -7.05072697	     -7.57599817	     53.85495714	     26.90016517	     42.14613169	      0.00000000	      0.00000000	      9.90079033	    -16.78387767	     26.98632990	     45.76643101	     42.14613169	      0.00000000	      0.00000000
      1.82000000	      2.85923522	      1.59826229	     -1.87400239	      0.36900159	      1.09807080	     -0.28833268	     20.37447498	     -1.48990985	     -3.22405824	    -28.71415595	     -0.05532139	     -8.73811170	      0.00000000	     -3.98206976	      5.14700889	     -3.79337880	    -11.12469628	     10.33952848	     -5.37699867	      0.00000000	    -18.34792231	     -3.78927463	     -0.68595131	     -7.11736173	     -7.50161402	     54.00254463	     26.92410235	     42.18262830	      0.00000000	      0.00000000	     10.17408685	    -16.98284101	     26.62826281	     46.46267249	     42.18262830	      0.00000000	      0.00000000
      1.83000000	      3.00446053	      1.94337274	     -1.74165576	      0.38050422	      1.09637901	     -0.28860675	     20.39711742	     -1.68145789	     -3.01095552	    -25.70559902	     -0.77495408	     -7.94549920	      0.00000000	     -5.11409543	      5.60492016	     -3.65154269	    -10.51244588	     10.67930837	     -5.63090586	      0.00000000	    -18.59226202	     -4.09345040	     -1.04820506	     -6.92225486	     -7.46842255	     55.34340285	     26.68805361	     42.66859171	      0.00000000	      0.00000000	      9.05941516	    -16.91157469	     22.10848449	     50.22189598	     42.66859171	      0.00000000	      0.00000000
      1.84000000	      3.04529017	      2.33829970	     -1.60409241	      0.39198157	      1.09428273	     -0.28883292	     20.54996330	     -1.97938411	     -2.94932474	    -22.85055458	     -1.45660599	     -7.07265647	      0.00000000	     -6.04208429	      6.08105575	     -3.76027456	    -10.08068338	     11.24873721	     -5.63031020	      0.00000000	    -18.70022604	     -4.43595241	     -1.24947545	     -6.99807967	     -7.34630554	     55.38370056	     26.72526624	     42.67894857	      0.00000000	      0.00000000	      9.48404735	    -17.06942807	     22.03813650	     50.44971574	     42.67894857	      0.00000000	      0.00000000
      1.85000000	      3.45404305	      2.64664528	     -1.47319132	      0.40385963	      1.09247730	     -0.28898789	     20.38060451	     -2.25098050	     -3.16319122	    -20.30173008	     -1.98114485	     -6.03493369	      0.00000000	     -7.62274918	      6.54351633	     -3.20774210	     -9.24279017	     11.47161144	     -6.26843221	      0.00000000	    -19.21187281	     -4.66309944	     -1.47656547	     -6.99936245	     -7.33028119	     55.55934330	     26.86081343	     42.77971717	      0.00000000	      0.00000000	      9.53456091	    -17.50163657	     21.99456668	     52.15304375	     42.77971717	      0.00000000	      0.00000000
      1.86000000	      3.68666113	      2.93762635	     -1.32358099	      0.41573442	      1.09019538	     -0.28908879	     20.39746928	     -2.47005221	     -3.40038197	    -17.86507355	     -2.52038515	     -5.46518072	      0.00000000	     -8.81387699	      6.89239292	     -3.09158010	     -8.83684580	     12.00649445	     -6.25501705	      0.00000000	    -19.52147907	     -4.86492398	     -1.65837087	     -7.03180028	     -7.26720234	     55.60023804	     26.91217113	     42.80362317	      0.00000000	      0.00000000	      9.87810947	    -17.64221409	     21.86464845	     52.58132045	     42.80362317	      0.00000000	      0.00000000
      1.87000000	      3.63424745	      3.31668592	     -1.23218093	      0.42763423	      1.08709251	     -0.28914608	     20.89776407	     -2.73411226	     -3.51049537	    -15.90707956	     -2.73793758	     -5.14311204	      0.00000000	     -9.58880973	      7.34503586	     -2.98832645	     -8.62735189	     12.86023383	     -6.37868293	      0.00000000	    -19.46954857	     -5.16614446	     -1.84721382	     -7.06928108	     -7.24094078	     55.61170648	     26.92902745	     42.80732625	      0.00000000	      0.00000000	     10.15294089	    -17.70929135	     21.81304317	     52.73779247	     42.80732625	      0.00000000	      0.00000000
      1.88000000	      4.03305755	      3.52726986	     -0.97249490	      0.43981667	      1.08485687	     -0.28928164	     20.59194925	     -2.94335230	     -4.04260599	    -13.54974669	     -2.94571566	     -4.42059719	      0.00000000	    -11.12202841	      7.63957555	     -1.50300453	     -7.94372954	     12.88779959	     -7.70263822	      0.00000000	    -19.99420268	     -5.24504596	     -2.14508678	     -7.07535690	     -7.24925699	     55.71222296	     27.22069370	     42.90230364	      0.00000000	      0.00000000	      9.99235003	    -18.24269831	     21.57878886	     54.99572954	     42.90230364	      0.00000000	      0.00000000
